<?xml version="1.0" encoding="UTF-8"?>
<svg version="1.1" viewBox="0 0 32 32" xmlns="http://www.w3.org/2000/svg">
	<path d="m8.22 31.9c-4.53-0.49-8.31-4.7-8.19-9.28-0.0428-4.89-0.0669-9.78 0.0742-14.7 0.615-4.52 4.9-8.23 9.5-7.95 4.84 9e-3 9.68-0.109 14.5 0.0762 4.5 0.654 8.11 4.98 7.84 9.54 0.0219 2.94 0.0655 5.88 0.014 8.82-2.18 2.41-4.63 4.59-6.94 6.89-2.27 2.19-4.51 4.41-6.82 6.56-3.33 0.125-6.67 0.108-10 1e-3zm8.91-3.78c-7e-3 -1.64-2e-3 -3.33 0.661-4.86-2.03 0.275-4.26 0.135-6.03-1.06-0.984-0.354-2.61-2.24-0.735-2.46 1.25 0.919 2.59 1.86 4.19 1.98 1.73 0.195 3.67-0.206 4.8-1.65 1.89-1.89 4.6-2.76 7.24-2.58 1.05-3e-3 2.1-9.8e-4 3.15-2e-3 -0.0436-3.2 0.0318-6.41-0.121-9.61-0.685-3.68-4.28-6.64-8.06-6.28-4.74 0.01-9.49-0.0817-14.2 0.0586-3.73 0.614-6.74 4.26-6.38 8.07 0.01 4.74-0.0817 9.49 0.0586 14.2 0.607 3.64 4.09 6.62 7.82 6.4 2.54 0.034 5.08 0.0187 7.63 0.0268v-2.27zm-8.05-13.7c-1.46-0.647-0.952-3.1 0.657-3.12 1.6-0.258 2.43 2.08 1.16 2.99-0.509 0.413-1.26 0.438-1.82 0.127zm13.1 0.107c-1.5-0.527-1.27-3.03 0.328-3.21 1.64-0.379 2.71 1.99 1.33 2.95-0.463 0.342-1.11 0.488-1.65 0.259z" fill="#FC1063"/>
</svg>
